 <svg width="23" height="23" viewBox="0 0 23 23" fill="none" xmlns="http://www.w3.org/2000/svg">
    <path
      d="M14.9963 16.2661L7.86463 12.7002M7.8545 9.80408L14.9929 6.23487M21.1184 17.7116C21.1184 19.496 19.6718 20.9426 17.8874 20.9426C16.103 20.9426 14.6564 19.496 14.6564 17.7116C14.6564 15.9272 16.103 14.4806 17.8874 14.4806C19.6718 14.4806 21.1184 15.9272 21.1184 17.7116ZM21.1184 4.78763C21.1184 6.57206 19.6718 8.01863 17.8874 8.01863C16.103 8.01863 14.6564 6.57206 14.6564 4.78763C14.6564 3.00321 16.103 1.55664 17.8874 1.55664C19.6718 1.55664 21.1184 3.00321 21.1184 4.78763ZM8.19441 11.2496C8.19441 13.0341 6.74785 14.4806 4.96342 14.4806C3.17899 14.4806 1.73242 13.0341 1.73242 11.2496C1.73242 9.46519 3.17899 8.01863 4.96342 8.01863C6.74785 8.01863 8.19441 9.46519 8.19441 11.2496Z"
      stroke="#212121"
      strokeWidth="2.23684"
    />
  </svg>