<svg width="32" height="24" viewBox="0 0 32 24" fill="none" xmlns="http://www.w3.org/2000/svg">
<path d="M27.3049 3.32374C24.5981 1.14561 20.3163 0.776391 20.133 0.76311C19.8488 0.739204 19.5778 0.898579 19.461 1.16155C19.4503 1.17749 19.3574 1.39264 19.2538 1.72733C21.0441 2.03014 23.2435 2.63842 25.233 3.87358C25.5517 4.07014 25.65 4.48983 25.4535 4.80858C25.3233 5.01842 25.1028 5.13264 24.8744 5.13264C24.7522 5.13264 24.6274 5.09811 24.5158 5.02905C21.0945 2.9067 16.8233 2.80045 15.9999 2.80045C15.1764 2.80045 10.9025 2.9067 7.48393 5.02905C7.16518 5.22827 6.74549 5.12998 6.54893 4.81123C6.34971 4.48983 6.44799 4.0728 6.76674 3.87358C8.75627 2.64108 10.9556 2.03014 12.746 1.72998C12.6424 1.39264 12.5494 1.18014 12.5414 1.16155C12.4219 0.898579 12.1536 0.733891 11.8667 0.76311C11.6835 0.776391 7.40158 1.14561 4.65768 3.35295C3.22596 4.67842 0.359863 12.424 0.359863 19.1205C0.359863 19.24 0.391738 19.3542 0.450176 19.4578C2.42643 22.9322 7.82127 23.8406 9.05111 23.8805C9.05643 23.8805 9.06439 23.8805 9.07236 23.8805C9.29018 23.8805 9.49471 23.7769 9.62221 23.6015L10.8653 21.8909C7.51049 21.025 5.79721 19.5534 5.69893 19.4658C5.41736 19.2187 5.3908 18.7884 5.64049 18.5069C5.88752 18.2253 6.31783 18.1987 6.59939 18.4458C6.63924 18.483 9.79486 21.1605 15.9999 21.1605C22.2155 21.1605 25.3711 18.4723 25.403 18.4458C25.6845 18.2014 26.1122 18.2253 26.3619 18.5095C26.6089 18.7911 26.5824 19.2187 26.3008 19.4658C26.2025 19.5534 24.4892 21.025 21.1344 21.8909L22.3775 23.6015C22.505 23.7769 22.7095 23.8805 22.9274 23.8805C22.9353 23.8805 22.9433 23.8805 22.9486 23.8805C24.1785 23.8406 29.5733 22.9322 31.5495 19.4578C31.608 19.3542 31.6399 19.24 31.6399 19.1205C31.6399 12.424 28.7738 4.67842 27.3049 3.32374ZM11.5799 16.4005C10.265 16.4005 9.19986 15.1839 9.19986 13.6805C9.19986 12.177 10.265 10.9605 11.5799 10.9605C12.8947 10.9605 13.9599 12.177 13.9599 13.6805C13.9599 15.1839 12.8947 16.4005 11.5799 16.4005ZM20.4199 16.4005C19.105 16.4005 18.0399 15.1839 18.0399 13.6805C18.0399 12.177 19.105 10.9605 20.4199 10.9605C21.7347 10.9605 22.7999 12.177 22.7999 13.6805C22.7999 15.1839 21.7347 16.4005 20.4199 16.4005Z" fill="#151515"/>
</svg>
