<svg width="36" height="27" viewBox="0 0 36 27" fill="none" xmlns="http://www.w3.org/2000/svg">
<path d="M16.2001 22.6624C16.7626 22.6624 17.2688 23.1124 17.2688 23.7312C17.2688 24.2937 16.8188 24.7999 16.2001 24.7999C15.6376 24.7999 15.1313 24.3499 15.1313 23.7312C15.1313 23.1124 15.6376 22.6624 16.2001 22.6624ZM32.7376 16.1374C32.1751 16.1374 31.6688 15.6874 31.6688 15.0687C31.6688 14.5062 32.1188 13.9999 32.7376 13.9999C33.3001 13.9999 33.8063 14.4499 33.8063 15.0687C33.8063 15.6312 33.3001 16.1374 32.7376 16.1374ZM32.7376 11.8062C30.9376 11.8062 29.4751 13.2687 29.4751 15.0687C29.4751 15.4062 29.5313 15.7437 29.6438 16.0812L18.9001 21.8187C18.2813 20.9187 17.2688 20.4124 16.2001 20.4124C14.9626 20.4124 13.8376 21.1437 13.2751 22.2124L3.60008 17.1499C2.58758 16.5874 1.80008 14.9562 1.91258 13.3812C1.96883 12.5937 2.25008 11.9749 2.64383 11.7499C2.92508 11.5812 3.20633 11.6374 3.60008 11.8062L3.65633 11.8624C6.24383 13.2124 14.6251 17.5999 14.9626 17.7687C15.5251 17.9937 15.8063 18.1062 16.7626 17.6562L34.0876 8.65616C34.3688 8.54366 34.6501 8.31866 34.6501 7.92491C34.6501 7.41866 34.1438 7.19366 34.1438 7.19366C33.1313 6.74366 31.6126 6.01241 30.1501 5.33741C27.0001 3.87491 23.4001 2.18741 21.8251 1.34366C20.4751 0.612413 19.3501 1.23116 19.1813 1.34366L18.7876 1.51241C11.6438 5.11241 2.19383 9.78116 1.63133 10.1187C0.675079 10.6812 0.0563288 11.8624 7.8782e-05 13.3249C-0.112421 15.6312 1.06883 18.0499 2.75633 18.8937L12.9938 24.1812C13.2188 25.7562 14.6251 26.9937 16.2001 26.9937C18.0001 26.9937 19.4063 25.5874 19.4626 23.7874L30.7126 17.7124C31.2751 18.1624 32.0063 18.3874 32.7376 18.3874C34.5376 18.3874 36.0001 16.9249 36.0001 15.1249C36.0001 13.2687 34.5376 11.8062 32.7376 11.8062Z" fill="#151515"/>
</svg>
