<svg width="28" height="28" viewBox="0 0 28 28" fill="none" xmlns="http://www.w3.org/2000/svg">
<path d="M14.238 0.875C7.12139 0.875 1.3516 6.59967 1.3516 13.662C1.3516 16.0779 2.0273 18.3372 3.20076 20.2648L0.875 27.125L8.00961 24.8585C9.85578 25.8713 11.979 26.4491 14.238 26.4491C21.3556 26.4491 27.125 20.7236 27.125 13.662C27.125 6.59967 21.3556 0.875 14.238 0.875ZM20.6459 18.5182C20.3428 19.2697 18.9717 19.9556 18.3667 19.9872C17.7624 20.0193 17.7451 20.4556 14.4503 19.0243C11.1559 17.5926 9.17381 14.1116 9.01754 13.8874C8.86115 13.664 7.74137 12.0682 7.80178 10.4623C7.8626 8.85605 8.74203 8.09826 9.05592 7.78309C9.36945 7.46744 9.72893 7.4109 9.94842 7.40732C10.2079 7.40311 10.3759 7.39959 10.5679 7.40668C10.7598 7.41395 11.0479 7.36654 11.2974 8.03006C11.5468 8.69352 12.1437 10.3242 12.22 10.4904C12.2963 10.6567 12.3436 10.8493 12.226 11.0629C12.1081 11.2769 12.0478 11.4106 11.8767 11.5951C11.7048 11.7795 11.515 12.0077 11.3616 12.1487C11.1905 12.3049 11.0118 12.4752 11.1917 12.809C11.3714 13.1426 11.9916 14.2361 12.9365 15.1373C14.1509 16.2958 15.1981 16.68 15.5204 16.8551C15.8435 17.0311 16.0364 17.0115 16.2368 16.8007C16.4362 16.5898 17.0945 15.878 17.3264 15.5603C17.5581 15.2417 17.7753 15.3041 18.073 15.4238C18.3705 15.5441 19.9572 16.3939 20.2804 16.5694C20.6032 16.7445 20.819 16.8348 20.8962 16.9737C20.9734 17.1131 20.949 17.7665 20.6459 18.5182Z" fill="#212121"/>
</svg>
