<svg width="18" height="17" viewBox="0 0 18 17" fill="none" xmlns="http://www.w3.org/2000/svg">
<path d="M9.12852 0L4.61353 2.6039L6.27346 3.56585L9.12852 1.9239L11.9836 3.56585L13.6436 2.6039L9.12852 0Z" fill="#E9FF26"/>
<path d="M11.9836 4.92578L13.6436 5.88777V7.81166L10.7885 9.4536V12.7375L9.12852 13.6994L7.4686 12.7375V9.4536L4.61353 7.81166V5.88777L6.27346 4.92578L9.12852 6.56777L11.9836 4.92578Z" fill="#E9FF26"/>
<path d="M13.6436 9.17163V11.0955L11.9836 12.0575V10.1336L13.6436 9.17163Z" fill="#E9FF26"/>
<path d="M11.967 13.4176L14.8221 11.7756V8.49173L16.4821 7.52979V12.7376L11.967 15.3415V13.4176Z" fill="#E9FF26"/>
<path d="M14.822 5.20786L13.1621 4.24589L14.822 3.28394L16.482 4.24589V6.1698L14.822 7.13175V5.20786Z" fill="#E9FF26"/>
<path d="M7.46851 16.0379V14.114L9.12843 15.076L10.7884 14.114V16.0379L9.12843 16.9998L7.46851 16.0379Z" fill="#E9FF26"/>
<path d="M6.27346 12.0575L4.61353 11.0955V9.17163L6.27346 10.1336V12.0575Z" fill="#E9FF26"/>
<path d="M9.12843 5.20786L7.46851 4.24589L9.12843 3.28394L10.7884 4.24589L9.12843 5.20786Z" fill="#E9FF26"/>
<path d="M5.09478 4.24589L3.43484 5.20786V7.13175L1.7749 6.1698V4.24589L3.43484 3.28394L5.09478 4.24589Z" fill="#E9FF26"/>
<path d="M1.7749 7.52979L3.43484 8.49173V11.7756L6.28992 13.4176V15.3415L1.7749 12.7376V7.52979Z" fill="#E9FF26"/>
</svg>
