<svg width="17" height="16" viewBox="0 0 17 16" fill="none" xmlns="http://www.w3.org/2000/svg">
<path d="M11.5672 3.5H14.25C14.2118 3.44791 14.1703 3.39833 14.1258 3.35155L11.7158 0.94155C11.6689 0.896942 11.6193 0.855373 11.5672 0.8171V3.5Z" fill="#212121"/>
<path d="M4.06641 15.5H13.0664C13.4641 15.4996 13.8454 15.3414 14.1266 15.0602C14.4078 14.779 14.566 14.3977 14.5664 14V4.5H11.5664C11.3013 4.49964 11.0472 4.39417 10.8597 4.20671C10.6722 4.01925 10.5668 3.76511 10.5664 3.5V0.5H4.06641C3.66872 0.500437 3.28744 0.658612 3.00623 0.939822C2.72502 1.22103 2.56684 1.60231 2.56641 2V14C2.56684 14.3977 2.72502 14.779 3.00623 15.0602C3.28744 15.3414 3.66872 15.4996 4.06641 15.5Z" fill="#212121"/>
</svg>
