<svg width="27" height="23" viewBox="0 0 27 23" fill="none" xmlns="http://www.w3.org/2000/svg">
<path d="M24.5676 0.453125H2.43243C1.07027 0.453125 0 1.53073 0 2.90223V20.0949C0 21.4664 1.07027 22.544 2.43243 22.544H24.5676C25.9297 22.544 27 21.4664 27 20.0949V2.90223C27 1.53073 25.9297 0.453125 24.5676 0.453125ZM20.3838 4.37169C21.7459 4.37169 22.8162 5.44929 22.8162 6.82079C22.8162 8.19229 21.7459 9.2699 20.3838 9.2699C19.0216 9.2699 17.9514 8.19229 17.9514 6.82079C17.9514 5.44929 19.0216 4.37169 20.3838 4.37169ZM22.5243 19.4582H4.08649C3.6973 19.4582 3.45405 18.9683 3.6973 18.6745L9.53514 11.621C9.72973 11.3761 10.0703 11.3761 10.2649 11.621L14.4973 16.7642C14.6919 17.0091 15.0324 17.0091 15.227 16.7642L17.9027 13.5313C18.0973 13.2864 18.4378 13.2864 18.6324 13.5313L22.8649 18.6255C23.1568 18.9683 22.9622 19.4582 22.5243 19.4582Z" fill="#E9FF26"/>
</svg>
