<svg width="37" height="36" viewBox="0 0 37 36" fill="none" xmlns="http://www.w3.org/2000/svg">
<g clip-path="url(#clip0_7834_141639)">
<path d="M36.1133 17.6172C36.1133 27.2816 28.0539 35.1172 18.1133 35.1172C8.17271 35.1172 0.113281 27.2816 0.113281 17.6172C0.113281 7.95274 8.17271 0.117188 18.1133 0.117188C28.0559 0.117188 36.1133 7.95274 36.1133 17.6172Z" fill="#2081E2"/>
<path d="M8.99349 18.2051L9.07115 18.0864L13.7537 10.9647C13.8221 10.8604 13.983 10.8712 14.0348 10.9844C14.817 12.6889 15.492 14.8087 15.1758 16.1284C15.0408 16.6714 14.6709 17.4068 14.2548 18.0864C14.2012 18.1853 14.142 18.2824 14.0791 18.3759C14.0495 18.419 13.9996 18.4442 13.946 18.4442H9.13033C9.00087 18.4442 8.92506 18.3076 8.99349 18.2051Z" fill="white"/>
<path d="M29.8648 19.5285V20.6559C29.8648 20.7206 29.8242 20.7781 29.765 20.8033C29.4025 20.9543 28.1616 21.5081 27.6457 22.2057C26.3289 23.9875 25.3229 26.5352 23.0741 26.5352H13.6924C10.3673 26.5352 7.67285 23.9066 7.67285 20.663V20.5588C7.67285 20.4725 7.74496 20.4023 7.83374 20.4023H13.0637C13.1672 20.4023 13.243 20.4958 13.2338 20.5947C13.1968 20.9255 13.2597 21.2636 13.4206 21.571C13.7313 22.1841 14.3748 22.5671 15.0702 22.5671H17.6593V20.6019H15.0998C14.9685 20.6019 14.8908 20.4545 14.9666 20.3502C14.9944 20.3088 15.0258 20.2657 15.0591 20.2172C15.3014 19.8827 15.6472 19.3631 15.9912 18.7716C16.226 18.3725 16.4535 17.9463 16.6366 17.5184C16.6736 17.4411 16.7031 17.362 16.7327 17.2847C16.7827 17.148 16.8345 17.0204 16.8714 16.8927C16.9084 16.7848 16.938 16.6716 16.9676 16.5655C17.0545 16.2023 17.0915 15.8175 17.0915 15.4184C17.0915 15.262 17.0841 15.0983 17.0693 14.9419C17.0619 14.7711 17.0397 14.6003 17.0175 14.4295C17.0027 14.2785 16.975 14.1292 16.9454 13.9728C16.9084 13.7445 16.8566 13.518 16.7974 13.2896L16.7771 13.2033C16.7327 13.0469 16.6957 12.8976 16.644 12.7412C16.4979 12.2504 16.3296 11.7721 16.152 11.3244C16.0873 11.1464 16.0133 10.9756 15.9394 10.8048C15.8303 10.5477 15.7193 10.314 15.6176 10.0928C15.5658 9.99212 15.5214 9.90042 15.477 9.80694C15.4271 9.70085 15.3753 9.59477 15.3235 9.49411C15.2866 9.41679 15.244 9.34487 15.2144 9.27294L14.8982 8.70479C14.8538 8.62747 14.9278 8.53577 15.0147 8.55915L16.9935 9.08055H16.999C17.0027 9.08055 17.0046 9.08237 17.0064 9.08237L17.2672 9.15247L17.5538 9.23161L17.6593 9.26034V8.11686C17.6593 7.56487 18.1142 7.11719 18.6764 7.11719C18.9575 7.11719 19.2127 7.22866 19.3958 7.41024C19.5788 7.59186 19.6935 7.83997 19.6935 8.11686V9.81415L19.9044 9.87165C19.921 9.87708 19.9376 9.88425 19.9524 9.89503C20.0042 9.9328 20.0782 9.98852 20.1725 10.0569C20.2465 10.1144 20.326 10.1845 20.4221 10.2564C20.6126 10.4056 20.8401 10.598 21.0898 10.8192C21.1563 10.8749 21.2211 10.9325 21.2802 10.99C21.602 11.2813 21.9627 11.6229 22.3066 12.0005C22.4028 12.1065 22.4971 12.2144 22.5933 12.3277C22.6894 12.4428 22.7912 12.556 22.8799 12.6693C22.9964 12.8203 23.1222 12.9767 23.2313 13.1404C23.2831 13.2177 23.3422 13.2968 23.3922 13.3741C23.5327 13.5808 23.6566 13.7948 23.775 14.0088C23.8249 14.1077 23.8767 14.2155 23.9211 14.3216C24.0524 14.6075 24.156 14.8988 24.2225 15.19C24.2429 15.253 24.2577 15.3213 24.2651 15.3824V15.3968C24.2872 15.4831 24.2947 15.5748 24.302 15.6683C24.3316 15.9668 24.3168 16.2652 24.2503 16.5655C24.2225 16.6932 24.1855 16.8136 24.1412 16.9413C24.0968 17.0635 24.0524 17.1912 23.9951 17.3116C23.8841 17.5615 23.7528 17.8115 23.5975 18.0452C23.5475 18.1315 23.4883 18.2232 23.4292 18.3095C23.3644 18.4012 23.2979 18.4875 23.2387 18.572C23.1573 18.6799 23.0704 18.7932 22.9816 18.8938C22.9021 18.9999 22.8208 19.106 22.732 19.1995C22.6081 19.3415 22.4897 19.4764 22.3658 19.6059C22.2918 19.6903 22.2123 19.7767 22.1309 19.854C22.0514 19.9402 21.97 20.0176 21.8961 20.0895C21.7722 20.21 21.6686 20.3034 21.5817 20.3808L21.3783 20.5624C21.3487 20.5875 21.3098 20.6019 21.2692 20.6019H19.6935V22.5671H21.676C22.1198 22.5671 22.5415 22.4143 22.8818 22.1338C22.9983 22.0349 23.5068 21.607 24.1079 20.9615C24.1282 20.9399 24.1541 20.9237 24.1837 20.9166L29.6596 19.3775C29.7613 19.3487 29.8648 19.4242 29.8648 19.5285Z" fill="white"/>
</g>
<defs>
<clipPath id="clip0_7834_141639">
<rect width="36" height="35" fill="white" transform="translate(0.113281 0.117188)"/>
</clipPath>
</defs>
</svg>
