<?xml version="1.0" encoding="UTF-8"?>
<svg xmlns="http://www.w3.org/2000/svg" xmlns:xlink="http://www.w3.org/1999/xlink" width="25px" height="25px" viewBox="0 0 25 22" version="1.1">
<g id="surface1">
<path style=" stroke:none;fill-rule:nonzero;fill:rgb(50.980392%,27.843137%,89.803922%);fill-opacity:1;" d="M 18.878906 6.804688 C 18.425781 6.550781 17.839844 6.550781 17.316406 6.804688 L 13.671875 8.917969 L 11.199219 10.261719 L 7.617188 12.375 C 7.160156 12.632812 6.574219 12.632812 6.054688 12.375 L 3.253906 10.710938 C 2.800781 10.457031 2.472656 9.945312 2.472656 9.367188 L 2.472656 6.164062 C 2.472656 5.652344 2.734375 5.140625 3.253906 4.820312 L 6.054688 3.21875 C 6.511719 2.964844 7.097656 2.964844 7.617188 3.21875 L 10.417969 4.886719 C 10.871094 5.140625 11.199219 5.652344 11.199219 6.230469 L 11.199219 8.34375 L 13.671875 6.933594 L 13.671875 4.757812 C 13.671875 4.246094 13.410156 3.730469 12.890625 3.414062 L 7.683594 0.402344 C 7.226562 0.148438 6.640625 0.148438 6.121094 0.402344 L 0.78125 3.476562 C 0.261719 3.730469 0 4.246094 0 4.757812 L 0 10.777344 C 0 11.289062 0.261719 11.800781 0.78125 12.121094 L 6.054688 15.128906 C 6.511719 15.386719 7.097656 15.386719 7.617188 15.128906 L 11.199219 13.082031 L 13.671875 11.671875 L 17.253906 9.625 C 17.707031 9.367188 18.292969 9.367188 18.816406 9.625 L 21.613281 11.222656 C 22.070312 11.480469 22.394531 11.992188 22.394531 12.570312 L 22.394531 15.769531 C 22.394531 16.28125 22.136719 16.792969 21.613281 17.113281 L 18.878906 18.714844 C 18.425781 18.972656 17.839844 18.972656 17.316406 18.714844 L 14.519531 17.113281 C 14.0625 16.859375 13.738281 16.347656 13.738281 15.769531 L 13.738281 13.722656 L 11.261719 15.128906 L 11.261719 17.242188 C 11.261719 17.753906 11.523438 18.269531 12.042969 18.585938 L 17.316406 21.597656 C 17.773438 21.851562 18.359375 21.851562 18.878906 21.597656 L 24.152344 18.585938 C 24.609375 18.332031 24.933594 17.820312 24.933594 17.242188 L 24.933594 11.160156 C 24.933594 10.648438 24.675781 10.136719 24.152344 9.816406 Z M 18.878906 6.804688 "/>
</g>
</svg>
