<svg width="26" height="26" viewBox="0 0 26 26" fill="none" xmlns="http://www.w3.org/2000/svg">
<path d="M22.181 3.819C19.8279 1.46588 16.5876 0 13 0C9.41248 0 6.17212 1.46588 3.819 3.819C1.46588 6.17212 0 9.41248 0 13C0 20.1751 5.82493 26 13 26C16.5876 26 19.8279 24.5342 22.181 22.181C24.5342 19.8279 26 16.5876 26 13C26 9.41248 24.5342 6.17212 22.181 3.819ZM20.2523 13.1157C20.2137 13.3086 20.0594 13.4243 19.9051 13.5015C17.8991 14.5045 15.8546 15.5074 13.8487 16.549C11.997 17.4748 10.1454 18.4006 8.29378 19.3264C8.1009 19.4036 7.90802 19.4807 7.71514 19.4036C7.32939 19.2879 7.17508 18.9021 7.29081 18.5163C7.56084 17.822 7.7923 17.1276 8.06233 16.4333C8.33236 15.7389 8.60239 15.0445 8.83384 14.3116C8.87242 14.2344 8.91099 14.1959 9.02672 14.1573C11.3027 13.7715 13.6172 13.3858 15.8932 13C16.0089 13 16.1247 12.9614 16.2018 12.9614V12.9229C15.8546 12.8843 15.546 12.8071 15.1988 12.7686C13.6944 12.4985 12.1899 12.2671 10.6855 12.0356C10.1068 11.9585 9.56678 11.8427 8.98814 11.7656C8.87241 11.7656 8.83384 11.727 8.79526 11.6113C8.29378 10.184 7.75372 8.79526 7.21366 7.40654C7.09793 7.13651 7.13651 6.90505 7.32939 6.71218C7.56084 6.48072 7.79229 6.44215 8.1009 6.5193C8.17805 6.55787 8.21663 6.55787 8.29378 6.59645C12.1128 8.52523 15.9318 10.454 19.7508 12.3442C20.1751 12.4985 20.3294 12.7686 20.2523 13.1157Z" fill="#E9FF26"/>
</svg>
