<svg width="20" height="20" viewBox="0 0 20 20" fill="none" xmlns="http://www.w3.org/2000/svg">
<path d="M13.1095 14.6442L6.73292 11.4559M6.72386 8.86637L13.1064 5.67508M18.5833 15.9366C18.5833 17.5321 17.2899 18.8255 15.6944 18.8255C14.099 18.8255 12.8056 17.5321 12.8056 15.9366C12.8056 14.3411 14.099 13.0477 15.6944 13.0477C17.2899 13.0477 18.5833 14.3411 18.5833 15.9366ZM18.5833 4.38108C18.5833 5.97657 17.2899 7.26997 15.6944 7.26997C14.099 7.26997 12.8056 5.97657 12.8056 4.38108C12.8056 2.78559 14.099 1.49219 15.6944 1.49219C17.2899 1.49219 18.5833 2.78559 18.5833 4.38108ZM7.02778 10.1589C7.02778 11.7543 5.73438 13.0477 4.13889 13.0477C2.5434 13.0477 1.25 11.7543 1.25 10.1589C1.25 8.56337 2.5434 7.26997 4.13889 7.26997C5.73438 7.26997 7.02778 8.56337 7.02778 10.1589Z" stroke="white" stroke-width="1.5"/>
</svg>
