<svg width="201" height="265" viewBox="0 0 201 265" fill="none" xmlns="http://www.w3.org/2000/svg">
<rect x="201" y="262" width="57" height="57" transform="rotate(-180 201 262)" fill="#E9FF26"/>
<rect opacity="0.5" x="99" y="243" width="32" height="32" transform="rotate(-180 99 243)" fill="#E9FF26"/>
<rect opacity="0.2" width="22" height="22" transform="matrix(1 0 0 -1 41 190)" fill="#E9FF26"/>
<rect opacity="0.2" width="22" height="22" transform="matrix(1 0 0 -1 16 142)" fill="#E9FF26"/>
<rect opacity="0.2" x="95" y="150" width="32" height="32" transform="rotate(-180 95 150)" fill="#E9FF26"/>
<rect opacity="0.2" x="119" y="61" width="24" height="24" transform="rotate(-180 119 61)" fill="#E9FF26"/>
<rect opacity="0.2" width="22" height="22" transform="matrix(1 0 0 -1 58 94)" fill="#E9FF26"/>
<rect opacity="0.6" x="174" y="158" width="45" height="45" transform="rotate(-180 174 158)" fill="#E9FF26"/>
<rect opacity="0.7" x="193" y="74" width="34" height="34" transform="rotate(-180 193 74)" fill="#E9FF26"/>
<rect opacity="0.32" x="8" y="165" width="8" height="8" transform="rotate(-180 8 165)" fill="#E9FF26"/>
<rect opacity="0.32" x="66" y="265" width="8" height="8" transform="rotate(-180 66 265)" fill="#E9FF26"/>
<rect opacity="0.32" x="36" y="218" width="8" height="8" transform="rotate(-180 36 218)" fill="#E9FF26"/>
<rect opacity="0.32" x="125" y="8" width="8" height="8" transform="rotate(-180 125 8)" fill="#E9FF26"/>
<rect opacity="0.32" x="53" y="57" width="14" height="14" transform="rotate(-180 53 57)" fill="#E9FF26"/>
<rect opacity="0.32" x="21" y="104" width="14" height="14" transform="rotate(-180 21 104)" fill="#E9FF26"/>
</svg>
