<svg width="201" height="265" viewBox="0 0 201 265" fill="none" xmlns="http://www.w3.org/2000/svg">
<rect y="3" width="57" height="57" fill="#E9FF26"/>
<rect opacity="0.5" x="102" y="22" width="32" height="32" fill="#E9FF26"/>
<rect opacity="0.2" width="22" height="22" transform="matrix(-1 0 0 1 160 75)" fill="#E9FF26"/>
<rect opacity="0.2" width="22" height="22" transform="matrix(-1 0 0 1 185 123)" fill="#E9FF26"/>
<rect opacity="0.2" x="106" y="115" width="32" height="32" fill="#E9FF26"/>
<rect opacity="0.2" x="82" y="204" width="24" height="24" fill="#E9FF26"/>
<rect opacity="0.2" width="22" height="22" transform="matrix(-1 0 0 1 143 171)" fill="#E9FF26"/>
<rect opacity="0.6" x="27" y="107" width="45" height="45" fill="#E9FF26"/>
<rect opacity="0.7" x="8" y="191" width="34" height="34" fill="#E9FF26"/>
<rect opacity="0.32" x="193" y="100" width="8" height="8" fill="#E9FF26"/>
<rect opacity="0.32" x="135" width="8" height="8" fill="#E9FF26"/>
<rect opacity="0.32" x="165" y="47" width="8" height="8" fill="#E9FF26"/>
<rect opacity="0.32" x="76" y="257" width="8" height="8" fill="#E9FF26"/>
<rect opacity="0.32" x="148" y="208" width="14" height="14" fill="#E9FF26"/>
<rect opacity="0.32" x="180" y="161" width="14" height="14" fill="#E9FF26"/>
</svg>
