<svg width="17" height="15" viewBox="0 0 17 15" fill="none" xmlns="http://www.w3.org/2000/svg">
<path fill-rule="evenodd" clip-rule="evenodd" d="M13.3988 3.54289C13.349 3.59681 13.2889 3.64012 13.222 3.67023C13.1551 3.70033 13.0828 3.71663 13.0094 3.71813H0.773924C0.722082 3.7174 0.671702 3.70173 0.628623 3.67301C0.585544 3.64428 0.551664 3.60372 0.531074 3.55621C0.510483 3.50869 0.504058 3.45625 0.512673 3.40519C0.521143 3.35412 0.544215 3.3066 0.579117 3.26835L3.17269 0.388607C3.22247 0.334692 3.2826 0.29138 3.34953 0.261269C3.41644 0.231156 3.48874 0.214873 3.56211 0.213369H15.8054C15.8572 0.2141 15.9076 0.229769 15.9507 0.258492C15.9938 0.287217 16.0276 0.327785 16.0482 0.37529C16.0688 0.422809 16.0752 0.475248 16.0667 0.526315C16.0581 0.577382 16.035 0.624902 16.0001 0.663148L13.3988 3.54289ZM0.567435 5.93003C0.532534 5.89179 0.50946 5.84427 0.500991 5.7932C0.492374 5.74213 0.4988 5.68969 0.519391 5.64217C0.539981 5.59466 0.57386 5.5541 0.61694 5.52538C0.660019 5.49665 0.710401 5.48098 0.762241 5.48025L13.0016 5.47051C13.075 5.47202 13.1473 5.4883 13.2142 5.51841C13.2811 5.54852 13.3412 5.59184 13.391 5.64575L16.004 8.51576C16.0389 8.554 16.062 8.60152 16.0705 8.65259C16.0791 8.70366 16.0727 8.7561 16.0521 8.80362C16.0315 8.85114 15.9977 8.89169 15.9546 8.92041C15.9115 8.94914 15.8611 8.96481 15.8093 8.96554L3.56989 8.97528C3.49653 8.97377 3.42423 8.95749 3.35731 8.92738C3.2904 8.89727 3.23025 8.85395 3.18047 8.80004L0.567435 5.93003ZM13.3988 14.0572C13.349 14.1111 13.2889 14.1544 13.222 14.1845C13.1551 14.2146 13.0828 14.2309 13.0094 14.2324L0.766038 14.2227C0.714342 14.222 0.663816 14.2063 0.620737 14.1776C0.577658 14.1488 0.543778 14.1083 0.523334 14.0608C0.502743 14.0132 0.496318 13.9608 0.504787 13.9097C0.513404 13.8587 0.536476 13.8112 0.571378 13.7729L3.17269 10.9029C3.22247 10.849 3.2826 10.8057 3.34953 10.7756C3.41644 10.7454 3.48874 10.7292 3.56211 10.7277H15.8054C15.8572 10.7284 15.9076 10.7441 15.9507 10.7728C15.9938 10.8015 16.0276 10.8421 16.0482 10.8896C16.0688 10.9371 16.0752 10.9895 16.0667 11.0406C16.0581 11.0917 16.035 11.1392 16.0001 11.1774L13.3988 14.0572Z" fill="#E9FF26"/>
</svg>
