<svg width="475" height="74" viewBox="0 0 475 74" fill="none" xmlns="http://www.w3.org/2000/svg">
<path d="M31.4608 73.567C28.4608 73.567 25.6108 73.177 22.9108 72.397C20.2708 71.617 18.0508 70.537 16.2508 69.157V72.667H0.0507812V0.666992H16.2508H34.1608C41.3008 0.666992 47.7508 2.13699 53.5108 5.07699C59.2708 7.95699 63.8008 11.977 67.1008 17.137C70.4008 22.237 72.0508 27.937 72.0508 34.237C72.0508 41.617 70.2808 48.307 66.7408 54.307C63.2008 60.307 58.3408 65.017 52.1608 68.437C45.9808 71.857 39.0808 73.567 31.4608 73.567ZM16.2508 65.287C17.3308 66.847 19.3408 68.137 22.2808 69.157C25.2808 70.177 28.4608 70.687 31.8208 70.687C36.2608 70.687 40.1608 69.487 43.5208 67.087C46.8808 64.627 49.4608 61.267 51.2608 57.007C53.1208 52.747 54.0508 47.947 54.0508 42.607C54.0508 35.287 52.4008 28.657 49.1008 22.717C45.8008 16.717 41.2708 12.037 35.5108 8.67699C29.7508 5.25699 23.3308 3.54699 16.2508 3.54699V65.287Z" fill="white"/>
<path d="M102.665 31.267C102.665 20.467 108.065 15.067 118.865 15.067V40.807C120.965 41.887 123.455 42.727 126.335 43.327C129.275 43.927 132.395 44.227 135.695 44.227C138.755 44.227 141.515 43.477 143.975 41.977C146.495 40.417 148.475 38.317 149.915 35.677C151.355 33.037 152.075 30.067 152.075 26.767C152.075 22.387 150.635 18.457 147.755 14.977C144.875 11.437 140.885 8.64699 135.785 6.60699C130.745 4.56699 125.105 3.54699 118.865 3.54699V15.067H92.0449V0.666992H118.865H136.775C143.015 0.666992 148.655 1.71699 153.695 3.81699C158.795 5.85699 162.785 8.67699 165.665 12.277C168.605 15.877 170.075 19.897 170.075 24.337C170.075 29.617 168.185 34.327 164.405 38.467C160.685 42.607 155.735 45.577 149.555 47.377L170.435 72.667H151.535L131.825 48.817C127.025 48.217 122.705 47.167 118.865 45.667V72.667H102.665V31.267Z" fill="white"/>
<path d="M265.818 0.666992V13.267H217.218V33.337H259.878V36.577H217.218V60.067H265.818V72.667H201.018V51.067C201.018 41.107 205.608 35.737 214.788 34.957C205.608 34.117 201.018 28.747 201.018 18.847V0.666992H265.818Z" fill="white"/>
<path d="M362.083 0.666992V13.267H313.483V33.337H356.143V36.577H313.483V60.067H362.083V72.667H297.283V51.067C297.283 41.107 301.873 35.737 311.053 34.957C301.873 34.117 297.283 28.747 297.283 18.847V0.666992H362.083Z" fill="white"/>
<path d="M433.688 72.667H433.238L418.118 72.577L396.248 10.837V72.667H392.648V0.666992H410.018L434.408 69.337L458.708 0.936989V0.666992H474.908V72.667H458.708V11.827L437.198 72.577L435.578 72.667H433.688Z" fill="white"/>
</svg>
