<svg width="21" height="18" viewBox="0 0 21 18" fill="none" xmlns="http://www.w3.org/2000/svg">
<path d="M15.8545 5.49885C15.6534 5.3865 15.427 5.32751 15.1967 5.32751C14.9664 5.32751 14.74 5.3865 14.5389 5.49885L11.5208 7.24943L9.47006 8.3911L6.45205 10.1417C6.251 10.2539 6.02456 10.3129 5.79429 10.3129C5.56402 10.3129 5.33758 10.2539 5.13652 10.1417L2.73744 8.77166C2.54225 8.65973 2.37921 8.49936 2.26407 8.30604C2.14892 8.11273 2.08557 7.89299 2.08011 7.66804V4.96607C2.07741 4.73942 2.13736 4.51642 2.25335 4.32168C2.36934 4.12694 2.53686 3.96802 2.73744 3.86244L5.09778 2.53049C5.29883 2.41823 5.52527 2.3593 5.75554 2.3593C5.98581 2.3593 6.21225 2.41823 6.4133 2.53049L8.77364 3.86244C8.96883 3.97438 9.13187 4.13475 9.24701 4.32807C9.36215 4.52138 9.42551 4.74112 9.43097 4.96607V6.71664L11.4817 5.53691V3.78633C11.4844 3.55968 11.4244 3.33669 11.3084 3.14195C11.1924 2.94721 11.0249 2.78829 10.8243 2.68271L6.45205 0.17119C6.251 0.058933 6.02456 0 5.79429 0C5.56402 0 5.33758 0.058933 5.13652 0.17119L0.686226 2.68288C0.485674 2.78844 0.318169 2.94734 0.20218 3.14205C0.0861922 3.33675 0.0262266 3.55971 0.028896 3.78633V8.84778C0.0261946 9.07443 0.0861451 9.29742 0.202135 9.49216C0.318125 9.6869 0.485648 9.84582 0.686226 9.9514L5.13601 12.4631C5.33706 12.5753 5.5635 12.6343 5.79377 12.6343C6.02404 12.6343 6.25048 12.5753 6.45153 12.4631L9.46954 10.7506L11.5202 9.57084L14.5384 7.85832C14.7394 7.74597 14.9659 7.68698 15.1962 7.68698C15.4265 7.68698 15.6529 7.74597 15.8539 7.85832L18.2143 9.19028C18.4095 9.30223 18.5725 9.4626 18.6876 9.65591C18.8028 9.84923 18.8661 10.069 18.8716 10.2939V12.9959C18.8743 13.2225 18.8144 13.4455 18.6984 13.6403C18.5824 13.835 18.4149 13.9939 18.2143 14.0995L15.8539 15.4695C15.6529 15.5818 15.4265 15.6407 15.1962 15.6407C14.9659 15.6407 14.7395 15.5818 14.5384 15.4695L12.1781 14.1376C11.9829 14.0256 11.8199 13.8652 11.7047 13.6719C11.5896 13.4786 11.5262 13.2589 11.5208 13.0339V11.2832L9.47006 12.4629V14.2135C9.46736 14.4401 9.52731 14.6631 9.6433 14.8579C9.75929 15.0526 9.92681 15.2115 10.1274 15.3171L14.5772 17.8288C14.7782 17.9411 15.0047 18 15.2349 18C15.4652 18 15.6916 17.9411 15.8927 17.8288L20.3425 15.3171C20.5377 15.2052 20.7007 15.0448 20.8158 14.8515C20.931 14.6582 20.9943 14.4384 20.9998 14.2135V9.15222C21.0025 8.92557 20.9426 8.70258 20.8266 8.50784C20.7106 8.3131 20.5431 8.15418 20.3425 8.0486L15.8545 5.49885Z" fill="white"/>
</svg>