<svg width="146" height="146" viewBox="0 0 146 146" fill="none" xmlns="http://www.w3.org/2000/svg">
<path opacity="0.25" d="M87.5661 143.19C78.294 145.105 68.7354 145.175 59.4363 143.396C50.1371 141.617 41.2794 138.023 33.369 132.821C25.4585 127.619 18.6502 120.909 13.3328 113.076C8.01532 105.242 4.29288 96.4379 2.37798 87.1657C0.463074 77.8936 0.39321 68.335 2.17237 59.0359C3.95154 49.7367 7.54489 40.879 12.7473 32.9686C17.9496 25.0581 24.6591 18.2498 32.4927 12.9324C40.3263 7.61493 49.1305 3.89249 58.4026 1.97759C67.6748 0.0626828 77.2333 -0.00718025 86.5325 1.77198C95.8317 3.55115 104.689 7.1445 112.6 12.3469C120.51 17.5492 127.319 24.2587 132.636 32.0923C137.953 39.9259 141.676 48.7301 143.591 58.0022C145.506 67.2744 145.576 76.8329 143.796 86.1321C142.017 95.4313 138.424 104.289 133.221 112.199C128.019 120.11 121.31 126.918 113.476 132.236C105.642 137.553 96.8383 141.275 87.5661 143.19L87.5661 143.19Z" stroke="white" stroke-width="0.775949"/>
<circle cx="72.9826" cy="72.5836" r="55.3029" fill="#7E6FA8" fill-opacity="0.2"/>
<path d="M58.1719 72.5481L68.0693 82.4455L87.7969 62.7178" stroke="#D9F66F" stroke-width="8.59074" stroke-linecap="round" stroke-linejoin="round"/>
</svg>
