<svg width="140" height="140" viewBox="0 0 140 140" fill="none" xmlns="http://www.w3.org/2000/svg">
<path opacity="0.25" d="M83.9814 137.299C75.091 139.135 65.926 139.202 57.0097 137.496C48.0934 135.79 39.6004 132.345 32.0157 127.357C24.4309 122.368 17.9029 115.935 12.8044 108.424C7.70589 100.913 4.13672 92.4714 2.30066 83.581C0.464594 74.6906 0.397607 65.5256 2.10352 56.6093C3.80943 47.693 7.25483 39.2 12.243 31.6153C17.2312 24.0305 23.6644 17.5025 31.1755 12.404C38.6865 7.3055 47.1282 3.73632 56.0186 1.90026C64.909 0.0642032 74.074 -0.00278341 82.9903 1.70313C91.9066 3.40904 100.4 6.85444 107.984 11.8426C115.569 16.8308 122.097 23.2641 127.196 30.7751C132.294 38.2861 135.863 46.7278 137.699 55.6182C139.535 64.5086 139.602 73.6736 137.896 82.5899C136.191 91.5062 132.745 99.9992 127.757 107.584C122.769 115.169 116.336 121.697 108.825 126.795C101.313 131.894 92.8718 135.463 83.9814 137.299L83.9814 137.299Z" stroke="white" stroke-width="0.744002"/>
<g opacity="0.2">
<circle cx="69.9986" cy="69.5997" r="53.0259" fill="#17172D"/>
<circle cx="69.9986" cy="69.5997" r="53.0259" fill="#F44950"/>
</g>
<path d="M57.1328 84.5292L86.9905 54.6699M57.1333 54.6707L86.9921 84.5288" stroke="url(#paint0_linear_4043_32103)" stroke-width="6.17778" stroke-linecap="round" stroke-linejoin="round"/>
<defs>
<linearGradient id="paint0_linear_4043_32103" x1="26.0502" y1="5.86551" x2="65.4474" y2="-0.536227" gradientUnits="userSpaceOnUse">
<stop stop-color="#C22684"/>
<stop offset="1" stop-color="#F84B4B"/>
</linearGradient>
</defs>
</svg>
